<?xml version="1.0" standalone="no"?>
<!DOCTYPE svg PUBLIC "-//W3C//DTD SVG 20010904//EN"
 "http://www.w3.org/TR/2001/REC-SVG-20010904/DTD/svg10.dtd">
<svg version="1.0" xmlns="http://www.w3.org/2000/svg"
 width="384.000000pt" height="384.000000pt" viewBox="0 0 384.000000 384.000000"
 preserveAspectRatio="xMidYMid meet">
<metadata>
Created by potrace 1.16, written by Peter Selinger 2001-2019
</metadata>
<g transform="translate(0.000000,384.000000) scale(0.100000,-0.100000)"
fill="#5043e4" stroke="none">
<path d="M1125 3791 c-16 -4 -50 -22 -75 -40 -97 -68 -153 -102 -179 -107 -24
-5 -28 -2 -45 50 -11 31 -25 56 -32 56 -16 0 -54 -49 -85 -110 -33 -66 -39
-199 -11 -261 23 -50 91 -146 155 -217 l41 -47 -52 50 c-51 48 -123 146 -156
213 -9 17 -21 32 -26 32 -24 0 -64 -83 -68 -140 -6 -88 36 -242 95 -343 3 -5
-4 -4 -17 3 -45 24 -53 8 -48 -98 4 -78 10 -107 27 -139 22 -38 118 -123 140
-123 5 0 13 -4 16 -10 3 -6 -1 -7 -9 -4 -13 5 -16 -4 -16 -55 0 -86 29 -144
89 -178 25 -15 47 -31 49 -35 2 -4 19 -12 37 -18 24 -8 32 -16 28 -27 -3 -8 2
-49 12 -91 9 -43 19 -87 21 -100 7 -34 72 -101 128 -129 40 -20 59 -24 100
-20 28 3 43 3 34 0 -27 -7 -22 -16 27 -62 l45 -41 -95 0 c-51 0 -97 -4 -100
-10 -3 -5 2 -21 12 -36 l17 -27 -66 7 c-64 7 -70 6 -142 -30 -77 -39 -97 -64
-51 -64 35 0 31 -15 -7 -30 -52 -21 -129 -58 -178 -87 -56 -32 -162 -142 -156
-160 5 -11 -36 -63 -49 -63 -7 0 -77 -79 -97 -109 -23 -33 -24 -101 -3 -101
19 0 19 -5 1 -33 -34 -52 -59 -293 -36 -338 7 -13 7 -19 0 -19 -19 0 -10 -32
35 -118 90 -175 166 -232 355 -267 123 -24 462 -14 479 14 5 7 14 11 20 7 5
-4 35 0 65 9 32 9 65 13 82 9 23 -6 26 -4 22 13 -4 15 4 22 41 37 25 10 57 23
71 30 55 29 132 48 166 42 35 -7 43 1 22 22 -9 9 -3 12 30 12 29 0 50 7 64 20
12 11 25 20 28 20 4 0 10 -28 14 -62 11 -112 60 -179 178 -244 48 -26 62 -28
153 -29 117 0 170 17 228 73 56 55 77 102 77 176 0 55 -4 70 -32 112 -18 27
-53 64 -78 83 l-45 34 70 -6 c110 -9 211 -73 257 -161 20 -39 24 -51 72 -231
15 -55 35 -115 44 -133 21 -42 98 -112 122 -112 11 0 22 -5 25 -10 10 -16 146
-12 196 5 63 22 135 78 169 133 37 58 40 119 9 168 l-21 34 26 0 c14 0 26 -4
26 -10 0 -5 7 -10 15 -10 8 0 15 6 15 13 0 13 -63 67 -79 67 -18 0 -81 42 -92
61 -13 25 -29 24 -29 -2 0 -11 -7 -46 -16 -76 -15 -51 -15 -59 0 -89 18 -38
23 -40 50 -19 27 20 31 19 44 -10 9 -20 8 -34 -4 -65 -9 -22 -19 -40 -23 -40
-4 0 -17 -9 -29 -20 -27 -25 -114 -60 -150 -60 -47 0 -102 20 -136 51 -38 33
-63 102 -92 254 -10 50 -23 105 -31 123 -15 36 -122 147 -156 163 -12 5 -42
21 -66 34 -25 14 -57 28 -72 30 -16 3 -40 10 -54 15 -38 14 -186 12 -231 -3
-22 -7 -52 -12 -69 -10 -44 5 -109 -15 -214 -64 -56 -27 -127 -52 -180 -62
-87 -18 -176 -56 -259 -112 -51 -34 -72 -37 -72 -8 0 18 -4 20 -27 15 -16 -4
-40 -16 -55 -26 -15 -11 -31 -20 -37 -20 -5 0 -11 -4 -13 -8 -7 -17 -90 -52
-123 -52 -18 0 -45 -4 -59 -10 -27 -10 -56 -4 -56 11 0 5 14 9 30 9 33 0 38
14 14 41 -17 19 -46 14 -109 -16 -26 -12 -49 -12 -129 -4 -94 9 -142 25 -189
62 -23 19 -23 52 0 42 41 -17 53 -17 53 -2 0 15 -51 58 -83 70 -25 9 -35 44
-43 147 -6 80 -5 90 10 90 12 0 16 10 16 44 0 75 49 166 138 252 70 69 144 99
295 120 137 19 146 17 147 -29 0 -18 -44 -62 -62 -62 -6 0 -12 -14 -14 -30 -2
-23 4 -39 27 -63 16 -17 33 -32 37 -32 8 0 116 -16 171 -26 19 -3 30 -9 25
-12 -44 -33 -79 -112 -54 -127 11 -7 120 34 120 45 0 5 16 18 36 31 41 25 50
19 60 -43 8 -44 15 -46 49 -16 32 28 35 86 5 113 -24 21 -26 53 -5 61 8 3 36
-6 61 -20 36 -20 50 -24 60 -15 10 8 14 8 14 0 0 -6 7 -11 15 -11 23 0 18 35
-10 69 -38 44 -90 49 -187 17 -42 -14 -86 -26 -97 -26 -34 0 -71 22 -77 46 -7
26 15 84 31 84 6 0 27 11 46 24 20 14 40 21 45 17 35 -30 198 -53 220 -31 6 6
27 19 48 30 l38 19 39 -25 c41 -26 50 -53 24 -74 -16 -14 -21 -80 -5 -80 42 0
80 49 80 103 0 18 1 18 19 -4 10 -14 21 -36 23 -49 3 -22 10 -26 57 -33 30 -4
56 -6 58 -3 6 6 -28 86 -37 86 -4 0 -17 18 -29 40 -24 46 -11 54 31 20 25 -19
27 -19 67 -2 57 24 56 26 -29 82 -38 25 -55 30 -108 30 -34 0 -79 -7 -99 -15
-32 -13 -39 -13 -66 0 -16 8 -35 15 -41 15 -6 0 -24 10 -40 23 -27 22 -28 23
-13 58 14 34 51 57 62 39 2 -4 16 -5 30 -2 17 3 59 -12 133 -48 59 -29 126
-55 150 -58 27 -3 53 -13 66 -27 16 -16 39 -23 90 -28 70 -7 155 -39 157 -60
1 -7 2 -17 3 -24 0 -6 11 -23 23 -37 21 -23 30 -26 94 -26 39 0 98 7 131 16
100 25 206 20 194 -11 -8 -23 13 -80 39 -105 27 -26 78 -31 98 -11 9 10 7 16
-10 31 -19 15 -23 28 -23 74 0 45 4 58 22 70 28 20 72 20 91 1 8 -7 18 -30 21
-49 7 -37 49 -76 81 -76 15 0 17 8 13 58 -3 31 -8 64 -12 72 -5 12 5 16 53 18
34 2 62 -1 66 -7 9 -15 35 -14 35 2 0 7 -13 28 -29 47 l-29 35 -96 0 c-53 0
-96 4 -96 8 0 5 14 26 31 47 36 44 34 76 -3 64 -40 -12 -88 -58 -99 -94 -19
-57 -24 -60 -115 -60 -82 0 -114 8 -209 50 -78 35 -111 124 -73 196 9 16 24
46 34 68 24 49 55 69 107 69 80 0 196 -72 220 -136 12 -31 24 -10 42 70 17 84
37 132 72 176 l22 27 20 -21 c12 -13 32 -21 53 -22 47 -1 108 12 108 23 0 23
-36 50 -67 50 -42 0 -75 32 -71 68 4 39 88 85 140 77 43 -6 52 3 38 39 -8 22
-15 26 -52 26 -24 0 -56 -7 -72 -15 -40 -21 -61 -2 -28 25 12 10 22 23 22 30
0 16 -59 2 -79 -18 -15 -14 -16 -13 -19 11 -4 30 -18 34 -49 12 -25 -18 -43
-90 -43 -174 0 -43 -5 -65 -19 -82 -18 -22 -21 -23 -58 -10 -95 33 -174 104
-229 207 -36 66 -44 179 -19 256 41 121 52 143 114 210 l64 69 26 -25 c15 -15
32 -26 38 -26 5 0 18 18 28 41 22 49 49 69 91 69 44 0 80 21 154 89 36 34 72
61 81 61 18 0 49 31 49 48 0 19 33 52 52 52 25 0 22 27 -4 44 -13 8 -54 19
-93 25 l-70 11 -48 -51 c-39 -42 -52 -50 -70 -44 -52 16 -118 16 -161 0 -40
-15 -46 -15 -74 -1 -56 29 -81 17 -42 -19 20 -19 20 -19 -8 -31 -36 -15 -75
-8 -98 17 -9 10 -23 19 -31 19 -17 0 -17 -47 1 -83 15 -27 15 -27 -12 -21 -31
8 -68 32 -96 63 -26 28 -36 26 -36 -7 0 -22 16 -44 70 -96 39 -37 70 -72 70
-76 0 -13 -52 -53 -97 -75 -54 -26 -91 -79 -75 -106 9 -15 9 -21 -3 -31 -9 -7
-21 -18 -28 -23 -7 -6 -30 -22 -52 -35 -48 -30 -82 -66 -90 -99 -8 -29 -2 -35
22 -23 11 6 25 7 32 2 11 -6 10 -14 -5 -39 -10 -17 -21 -31 -24 -31 -4 0 -16
-9 -28 -20 -21 -20 -125 -70 -146 -70 -20 0 -116 -70 -116 -85 0 -26 -19 -16
-74 38 -46 44 -55 60 -61 99 -15 101 19 172 121 253 65 51 84 82 84 138 0 40
-4 49 -36 75 -36 30 -121 66 -229 96 -81 23 -197 71 -310 128 -61 31 -165 100
-165 109 0 5 -4 9 -10 9 -5 0 -32 23 -61 52 -119 119 -196 301 -187 442 6 93
52 190 117 248 44 38 45 40 26 54 -20 15 -136 18 -190 5z m1121 -3169 c6 -4
17 -17 23 -30 8 -15 18 -21 28 -18 9 4 25 -3 38 -16 12 -13 34 -32 47 -44 24
-19 25 -23 14 -67 -9 -39 -14 -47 -33 -47 -24 0 -34 -30 -10 -30 6 -1 -1 -8
-16 -16 -31 -17 -111 -14 -160 5 -38 15 -47 14 -47 -5 0 -13 -4 -13 -31 3 -40
23 -63 57 -78 113 -10 38 -10 51 3 82 22 51 50 68 100 62 23 -3 55 -1 71 5 39
12 38 12 51 3z"/>
</g>
</svg>
